<?xml version="1.0"?>
<svg xmlns="http://www.w3.org/2000/svg" viewBox="0 0 480 480"><path d="m312 48h-96c-4.417969 0-8 3.582031-8 8v48c0 4.417969 3.582031 8 8 8h96c4.417969 0 8-3.582031 8-8v-48c0-4.417969-3.582031-8-8-8zm-8 48h-80v-32h80zm0 0" fill="#FFFFFF"/><path d="m440 48h-80v-40c0-4.417969-3.582031-8-8-8h-192c-22.082031.0273438-39.972656 17.917969-40 40v8h-80c-22.082031.027344-39.9726562 17.917969-40 40v256c.0273438 22.082031 17.917969 39.972656 40 40h150.9375l-6 48h-24.9375c-4.417969 0-8 3.582031-8 8v32c0 4.417969 3.582031 8 8 8h160c4.417969 0 8-3.582031 8-8v-32c0-4.417969-3.582031-8-8-8h-24.9375l-6-48h150.9375c22.082031-.027344 39.972656-17.917969 40-40v-256c-.027344-22.082031-17.917969-39.972656-40-40zm-112 192h-168v16h168v16h-168c-13.253906 0-24-10.746094-24-24s10.746094-24 24-24h168zm-144-32v-192h160v192zm-48-168c0-13.253906 10.746094-24 24-24h8v192h-8c-2.488281.019531-4.972656.269531-7.414062.753906-.800782.140625-1.488282.375-2.242188.558594-1.628906.394531-3.234375.890625-4.800781 1.488281-.800781.3125-1.597657.65625-2.34375 1.007813-1.449219.683594-2.859375 1.449218-4.222657 2.296875-.671874.421875-1.359374.796875-2.007812 1.277343-.320312.226563-.679688.394532-.992188.632813zm-96 24h80v184c-.011719 10.613281 4.199219 20.792969 11.703125 28.296875s17.683594 11.714844 28.296875 11.703125h176c4.417969 0 8-3.582031 8-8v-56h8c4.417969 0 8-3.582031 8-8v-152h80c13.253906 0 24 10.746094 24 24v216h-448v-216c0-13.253906 10.746094-24 24-24zm272 400h-144v-16h144zm-33.0625-32h-77.875l6-48h65.875zm161.0625-64h-400c-13.253906 0-24-10.746094-24-24v-24h448v24c0 13.253906-10.746094 24-24 24zm0 0" fill="#000"/><path d="m429.679688 338.320312c-.777344-.707031-1.671876-1.273437-2.640626-1.679687-1.457031-.644531-3.082031-.8125-4.640624-.480469-.5.085938-.984376.25-1.4375.480469-.492188.160156-.953126.402344-1.359376.71875-.460937.273437-.890624.597656-1.28125.960937-.707031.777344-1.273437 1.671876-1.679687 2.640626-1.425781 3.347656-.414063 7.238281 2.46875 9.464843 2.878906 2.226563 6.902344 2.226563 9.78125 0 2.882813-2.226562 3.894531-6.117187 2.46875-9.464843-.40625-.96875-.972656-1.863282-1.679687-2.640626zm0 0" fill="#FFFFFF"/></svg>
