<svg viewBox="-72 0 438 438.23218" xmlns="http://www.w3.org/2000/svg"><path d="m47.117188 379h16.523437c.289063 0 .582031-.0625.882813-.0625.300781 0 .597656.0625.886718.0625h67.414063c.292969 0 .585937-.0625.886719-.0625.300781 0 .59375.0625.886718.0625h138.5c11.800782 0 21.019532-10.160156 21.019532-21.964844v-96.035156h-247zm0 0"/><path d="m47.117188 132h247v115h-247zm0 0"/><path d="m71.117188 438.230469 24.242187-14.671875c2.351563-1.375 5.265625-1.375 7.621094 0l24.136719 14.671875v-45.230469h-56zm0 0"/><path d="m273.09375 0h-225.976562v118h247v-96.785156c.074218-5.617188-2.113282-11.027344-6.066407-15.015625s-9.34375-6.2226565-14.957031-6.199219zm0 0"/><path d="m.117188 21.214844v335.820312c0 11.804688 9.21875 21.964844 21.027343 21.964844h11.972657v-379h-11.972657c-5.617187-.0234375-11.007812 2.210938-14.960937 6.199219s-6.1406252 9.398437-6.066406 15.015625zm0 0"/></svg>
